<svg xmlns="http://www.w3.org/2000/svg" width="2560" height="510" viewBox="0 0 2560 510" version="1.1"><path d="M 311.508 64.987 C 307.315 71.771, 121.058 445.285, 121.507 446.011 C 122.232 447.184, 503.636 447.422, 504.319 446.250 C 504.932 445.196, 314.670 64.723, 313.302 64.267 C 312.687 64.062, 311.880 64.386, 311.508 64.987 M 496.713 199.538 C 486.968 201.476, 479.779 205.115, 473.088 211.497 C 462.821 221.290, 458.373 235.224, 459.360 254.500 C 460.193 270.775, 464.006 280.848, 472.579 289.421 C 481.576 298.418, 491.447 301.958, 509.633 302.710 C 524.804 303.337, 534.148 301.767, 543.708 296.985 C 554.395 291.638, 562.880 280.278, 566.105 267 C 567.984 259.260, 567.744 240.999, 565.659 233.113 C 562.038 219.411, 553.860 208.916, 542.692 203.636 C 531.491 198.341, 511.632 196.571, 496.713 199.538 M 770.640 199.551 C 745.560 204.535, 732.756 221.704, 732.646 250.500 C 732.579 267.803, 736.091 278.562, 744.982 288.290 C 754.091 298.257, 767.332 303.011, 785.910 302.985 C 803.439 302.961, 815.982 298.775, 825.089 289.911 C 830.051 285.081, 835.316 276.070, 834.173 274.364 C 833.371 273.166, 811.682 264, 809.650 264 C 808.873 264, 806.999 265.623, 805.486 267.608 C 802.157 271.972, 794.009 275.977, 788.432 275.990 C 781.896 276.006, 774.784 273.404, 771.169 269.674 C 765.312 263.632, 763.256 250.235, 766.506 239.293 C 771.227 223.394, 793.610 220.380, 805.324 234.066 L 808.863 238.200 820.420 233.469 C 836.412 226.922, 835.981 227.350, 832.505 221.419 C 821.656 202.905, 797.222 194.269, 770.640 199.551 M 877.529 199.657 C 853.200 204.870, 840.671 221.943, 840.586 250 C 840.532 267.730, 844.009 278.472, 852.982 288.290 C 862.139 298.309, 875.287 303, 894.213 303 C 912.919 303, 924.713 299.168, 934.503 289.909 C 944.700 280.265, 948.415 269.741, 948.415 250.500 C 948.415 236.348, 947.001 229.524, 942.247 220.739 C 938.821 214.410, 930.279 206.475, 923.597 203.416 C 912.229 198.211, 891.984 196.559, 877.529 199.657 M 579.667 200.667 C 579.300 201.033, 579 223.478, 579 250.544 C 579 292.929, 579.207 299.927, 580.491 300.992 C 582.429 302.601, 634.101 301.746, 641.500 299.983 C 658.909 295.836, 670.202 284.399, 673.870 267.201 C 675.525 259.439, 675.296 239.571, 673.468 232.460 C 670.134 219.484, 663.627 210.885, 653.109 205.555 C 643.601 200.737, 637.839 200.031, 607.917 200.015 C 592.746 200.007, 580.033 200.300, 579.667 200.667 M 688.691 200.642 C 688.311 201.022, 688 223.478, 688 250.544 C 688 291.259, 688.239 299.954, 689.385 300.905 C 690.328 301.687, 695.525 301.966, 705.635 301.777 L 720.500 301.500 720.500 251 L 720.500 200.500 704.941 200.226 C 696.384 200.075, 689.071 200.262, 688.691 200.642 M 961.241 250.750 L 961.500 301.500 988.500 301.482 C 1018.596 301.462, 1026.229 300.424, 1035.500 295.090 C 1050.130 286.674, 1056.404 273.262, 1056.357 250.500 C 1056.321 232.584, 1053.157 222.465, 1044.736 213.330 C 1039.262 207.391, 1033.951 204.417, 1024.504 202.001 C 1017.598 200.235, 1013.411 200, 988.831 200 L 960.982 200 961.241 250.750 M 1066.241 250.750 L 1066.500 301.500 1106.500 301.500 L 1146.500 301.500 1146.500 288.500 L 1146.500 275.500 1122.250 275.232 L 1098 274.964 1098 269.502 L 1098 264.039 1119.750 263.770 L 1141.500 263.500 1141.500 250.500 L 1141.500 237.500 1119.750 237.230 L 1098 236.961 1098 231.498 L 1098 226.036 1122.250 225.768 L 1146.500 225.500 1146.780 212.750 L 1147.060 200 1106.521 200 L 1065.982 200 1066.241 250.750 M 506.564 226.069 C 496.552 228.554, 491.652 236.388, 491.598 250 C 491.541 264.397, 495.732 271.703, 505.713 274.605 C 516.904 277.858, 527.480 274.198, 531.941 265.527 C 534.187 261.162, 534.500 259.323, 534.500 250.500 C 534.500 241.685, 534.185 239.834, 531.946 235.473 C 530.184 232.043, 528.150 229.812, 525.389 228.281 C 520.707 225.687, 512.155 224.682, 506.564 226.069 M 888.500 225.935 C 877.123 228.705, 872.658 235.614, 872.628 250.500 C 872.597 265.501, 877.542 272.770, 889.398 275.151 C 896.817 276.641, 904.243 275.073, 909.229 270.963 C 918.855 263.029, 918.868 237.982, 909.251 230.055 C 904.161 225.860, 895.705 224.181, 888.500 225.935 M 612 250.500 L 612 275 620.343 275 C 631.312 275, 636.318 272.567, 639.975 265.457 C 642.186 261.160, 642.499 259.298, 642.489 250.477 C 642.480 241.693, 642.157 239.779, 639.965 235.520 C 636.319 228.435, 631.299 226, 620.343 226 L 612 226 612 250.500 M 993 250.500 L 993 275 1001.250 274.978 C 1018.643 274.932, 1024.850 267.424, 1023.814 247.687 C 1022.983 231.853, 1016.904 226, 1001.288 226 L 993 226 993 250.500 M 917.500 315.222 C 909.535 318.045, 905 324.806, 905 333.856 C 905 345.101, 912.792 353, 923.885 353 C 929.982 353, 933.608 351.706, 937.376 348.186 C 948.029 338.236, 945.087 321.113, 931.768 315.548 C 927.559 313.789, 921.905 313.660, 917.500 315.222 M 949.228 333.663 L 949.500 352.500 959.500 352.497 C 971.392 352.493, 975.800 350.729, 980.483 344.099 C 986.151 336.076, 983.830 323.566, 975.671 318.161 C 972.021 315.742, 970.622 315.469, 960.305 315.163 L 948.955 314.827 949.228 333.663 M 989.228 333.750 L 989.500 352.500 993.500 352.500 L 997.500 352.500 997.772 333.750 L 998.044 315 993.500 315 L 988.956 315 989.228 333.750 M 1003 315.944 C 1003 317.396, 1016.083 350.207, 1017.277 351.750 C 1017.810 352.438, 1019.710 353, 1021.500 353 C 1023.290 353, 1025.190 352.438, 1025.723 351.750 C 1026.890 350.241, 1040 317.412, 1040 315.997 C 1040 315.449, 1037.819 315, 1035.153 315 L 1030.305 315 1025.996 326.510 C 1023.626 332.841, 1021.552 337.885, 1021.387 337.720 C 1021.222 337.555, 1019.325 332.488, 1017.172 326.460 L 1013.256 315.500 1008.128 315.198 C 1005.024 315.015, 1003 315.310, 1003 315.944 M 1043.444 316.285 C 1043.173 316.992, 1043.074 325.429, 1043.225 335.035 L 1043.500 352.500 1057.724 352.777 L 1071.948 353.055 1072.563 350.606 C 1073.978 344.966, 1073.300 344.524, 1062.738 344.214 L 1053 343.928 1053 340.964 L 1053 338 1061.557 338 L 1070.115 338 1069.807 333.750 L 1069.500 329.500 1061.250 329.210 C 1053.267 328.929, 1053 328.841, 1053 326.497 C 1053 324.130, 1053.209 324.069, 1062.250 323.788 L 1071.500 323.500 1071.807 319.250 L 1072.115 315 1058.026 315 C 1047.472 315, 1043.814 315.322, 1043.444 316.285 M 1075.360 316.497 C 1075.676 317.320, 1078.238 321.407, 1081.054 325.580 L 1086.173 333.165 1080.143 342.270 C 1076.827 347.277, 1074.339 351.740, 1074.616 352.187 C 1074.892 352.634, 1077.112 353, 1079.549 353 C 1083.810 353, 1084.119 352.790, 1087.631 347.500 C 1089.640 344.475, 1091.557 342.016, 1091.892 342.036 C 1092.226 342.056, 1094.082 344.419, 1096.016 347.286 C 1099.254 352.087, 1099.879 352.525, 1103.902 352.814 C 1106.305 352.987, 1108.648 352.752, 1109.107 352.293 C 1109.566 351.834, 1107.216 347.342, 1103.885 342.312 L 1097.827 333.165 1102.946 325.580 C 1110.190 314.844, 1110.173 315, 1104.115 315 C 1099.101 315, 1098.961 315.083, 1095.758 319.982 C 1093.966 322.722, 1092.275 324.963, 1092 324.962 C 1091.725 324.961, 1090.169 322.719, 1088.543 319.980 L 1085.587 315 1080.186 315 C 1075.802 315, 1074.894 315.282, 1075.360 316.497 M 917.923 325.923 C 911.804 332.042, 915.595 344, 923.655 344 C 928.178 344, 930.629 342.619, 932.490 339.020 C 934.407 335.312, 934.398 332.640, 932.452 328.540 C 929.580 322.489, 922.612 321.234, 917.923 325.923 M 500.037 325.932 C 498.822 328.201, 498.670 338.932, 499.826 340.752 C 500.459 341.750, 540.869 341.954, 698.561 341.752 L 896.500 341.500 896.500 333 L 896.500 324.500 698.787 324.248 C 504.115 323.999, 501.057 324.025, 500.037 325.932 M 958.214 333.750 L 958.500 343.500 963.235 343.438 C 971.019 343.336, 974.946 338.011, 972.846 330.405 C 971.609 325.925, 968.572 324, 962.741 324 L 957.928 324 958.214 333.750" stroke="none" fill="#080404" fill-rule="evenodd"/></svg>